<?xml version="1.0" encoding="UTF-8" standalone="no"?>
<!-- Created with Inkscape (http://www.inkscape.org/) -->

<svg
   xmlns:dc="http://purl.org/dc/elements/1.1/"
   xmlns:cc="http://creativecommons.org/ns#"
   xmlns:rdf="http://www.w3.org/1999/02/22-rdf-syntax-ns#"
   xmlns:svg="http://www.w3.org/2000/svg"
   xmlns="http://www.w3.org/2000/svg"
   xmlns:sodipodi="http://sodipodi.sourceforge.net/DTD/sodipodi-0.dtd"
   xmlns:inkscape="http://www.inkscape.org/namespaces/inkscape"
   sodipodi:docname="ВыходТиристора.svg"
   inkscape:version="0.91 r13725"
   version="1.1"
   id="svg2"
   viewBox="0 0 618.19825 203.23604"
   height="57.357731mm"
   width="174.46928mm">
  <sodipodi:namedview
     fit-margin-left="5"
     fit-margin-right="5"
     fit-margin-bottom="5"
     fit-margin-top="5"
     inkscape:window-maximized="1"
     inkscape:window-y="-4"
     inkscape:window-x="-4"
     inkscape:window-height="968"
     inkscape:window-width="1280"
     showgrid="false"
     inkscape:current-layer="layer1"
     inkscape:document-units="px"
     inkscape:cy="2.5908229"
     inkscape:cx="250.30221"
     inkscape:zoom="1"
     inkscape:pageshadow="2"
     inkscape:pageopacity="0.0"
     borderopacity="1.0"
     bordercolor="#666666"
     pagecolor="#ffffff"
     id="base"
     showguides="true"
     inkscape:guide-bbox="true">
    <sodipodi:guide
       position="179,157.21655"
       orientation="0,1"
       id="guide4147" />
    <sodipodi:guide
       position="222,55.216554"
       orientation="0,1"
       id="guide4149" />
  </sodipodi:namedview>
  <defs
     id="defs4" />
  <metadata
     id="metadata7">
    <rdf:RDF>
      <cc:Work
         rdf:about="">
        <dc:format>image/svg+xml</dc:format>
        <dc:type
           rdf:resource="http://purl.org/dc/dcmitype/StillImage" />
        <dc:title />
      </cc:Work>
    </rdf:RDF>
  </metadata>
  <g
     id="layer1"
     inkscape:groupmode="layer"
     inkscape:label="Layer 1"
     transform="translate(10.15274,167.30848)">
    <text
       xml:space="preserve"
       style="font-style:normal;font-variant:normal;font-weight:normal;font-stretch:normal;font-size:17.5px;line-height:125%;font-family:sans-serif;-inkscape-font-specification:'sans-serif, Normal';text-align:start;letter-spacing:0px;word-spacing:0px;writing-mode:lr-tb;text-anchor:start;fill:#000000;fill-opacity:1;stroke:none;stroke-width:1px;stroke-linecap:butt;stroke-linejoin:miter;stroke-opacity:1"
       x="578.32379"
       y="-81.790359"
       id="text4212"
       sodipodi:linespacing="125%"><tspan
         sodipodi:role="line"
         id="tspan4214"
         x="578.32379"
         y="-81.790359">t</tspan></text>
    <path
       style="color:#000000;clip-rule:nonzero;display:inline;overflow:visible;visibility:visible;opacity:1;isolation:auto;mix-blend-mode:normal;color-interpolation:sRGB;color-interpolation-filters:linearRGB;solid-color:#000000;solid-opacity:1;fill:none;fill-opacity:1;fill-rule:evenodd;stroke:#000000;stroke-width:2;stroke-linecap:butt;stroke-linejoin:miter;stroke-miterlimit:4;stroke-dasharray:none;stroke-dashoffset:0;stroke-opacity:1;color-rendering:auto;image-rendering:auto;shape-rendering:auto;text-rendering:auto;enable-background:accumulate"
       d="m 444.91699,-69.49081 132.91378,0 m -132.91378,60.9852815 0,-131.4852815"
       title="sin(x)"
       id="path4216"
       inkscape:connector-curvature="0"
       sodipodi:nodetypes="cccc" />
    <path
       style="color:#000000;clip-rule:nonzero;display:inline;overflow:visible;visibility:visible;opacity:1;isolation:auto;mix-blend-mode:normal;color-interpolation:sRGB;color-interpolation-filters:linearRGB;solid-color:#000000;solid-opacity:1;fill:#000000;fill-opacity:1;fill-rule:evenodd;stroke:#000000;stroke-width:0.5;stroke-linecap:butt;stroke-linejoin:miter;stroke-miterlimit:4;stroke-dasharray:none;stroke-dashoffset:0;stroke-opacity:1;color-rendering:auto;image-rendering:auto;shape-rendering:auto;text-rendering:auto;enable-background:accumulate"
       d="m 444.87127,-136.66866 -2.61821,2.86757 2.68724,-15.74884 2.57347,15.76263 -2.65391,-2.89516"
       id="path4218"
       inkscape:connector-curvature="0"
       sodipodi:nodetypes="ccccc" />
    <path
       sodipodi:nodetypes="ccccc"
       inkscape:connector-curvature="0"
       id="path4220"
       d="m 577.40565,-69.49326 -2.86757,-2.61821 15.74884,2.68724 -15.76263,2.57347 2.89516,-2.65391"
       style="color:#000000;clip-rule:nonzero;display:inline;overflow:visible;visibility:visible;opacity:1;isolation:auto;mix-blend-mode:normal;color-interpolation:sRGB;color-interpolation-filters:linearRGB;solid-color:#000000;solid-opacity:1;fill:#000000;fill-opacity:1;fill-rule:evenodd;stroke:#000000;stroke-width:0.5;stroke-linecap:butt;stroke-linejoin:miter;stroke-miterlimit:4;stroke-dasharray:none;stroke-dashoffset:0;stroke-opacity:1;color-rendering:auto;image-rendering:auto;shape-rendering:auto;text-rendering:auto;enable-background:accumulate" />
    <text
       xml:space="preserve"
       style="font-style:normal;font-variant:normal;font-weight:normal;font-stretch:normal;font-size:17.5px;line-height:125%;font-family:sans-serif;-inkscape-font-specification:'sans-serif, Normal';text-align:start;letter-spacing:0px;word-spacing:0px;writing-mode:lr-tb;text-anchor:start;fill:#000000;fill-opacity:1;stroke:none;stroke-width:1px;stroke-linecap:butt;stroke-linejoin:miter;stroke-opacity:1"
       x="414.91699"
       y="-118.64871"
       id="text4222"
       sodipodi:linespacing="125%"><tspan
         sodipodi:role="line"
         id="tspan4224"
         x="414.91699"
         y="-118.64871">U<tspan
   style="font-size:64.99999762%;baseline-shift:sub"
   id="tspan4226">m</tspan></tspan></text>
    <text
       xml:space="preserve"
       style="font-style:normal;font-variant:normal;font-weight:normal;font-stretch:normal;font-size:17.5px;line-height:125%;font-family:sans-serif;-inkscape-font-specification:'sans-serif, Normal';text-align:start;letter-spacing:0px;word-spacing:0px;writing-mode:lr-tb;text-anchor:start;fill:#000000;fill-opacity:1;stroke:none;stroke-width:1px;stroke-linecap:butt;stroke-linejoin:miter;stroke-opacity:1"
       x="453.10785"
       y="-138.26775"
       id="text4228"
       sodipodi:linespacing="125%"><tspan
         sodipodi:role="line"
         id="tspan4230"
         x="453.10785"
         y="-138.26775">u</tspan></text>
    <text
       xml:space="preserve"
       style="font-style:normal;font-variant:normal;font-weight:normal;font-stretch:normal;font-size:17.5px;line-height:125%;font-family:sans-serif;-inkscape-font-specification:'sans-serif, Normal';text-align:start;letter-spacing:0px;word-spacing:0px;writing-mode:lr-tb;text-anchor:start;fill:#000000;fill-opacity:1;stroke:none;stroke-width:1px;stroke-linecap:butt;stroke-linejoin:miter;stroke-opacity:1"
       x="427.71283"
       y="-63.277855"
       id="text4238"
       sodipodi:linespacing="125%"><tspan
         sodipodi:role="line"
         id="tspan4240"
         x="427.71283"
         y="-63.277855">0</tspan></text>
    <text
       sodipodi:linespacing="125%"
       id="text4180"
       y="-81.790359"
       x="371.4014"
       style="font-style:normal;font-variant:normal;font-weight:normal;font-stretch:normal;font-size:17.5px;line-height:125%;font-family:sans-serif;-inkscape-font-specification:'sans-serif, Normal';text-align:start;letter-spacing:0px;word-spacing:0px;writing-mode:lr-tb;text-anchor:start;fill:#000000;fill-opacity:1;stroke:none;stroke-width:1px;stroke-linecap:butt;stroke-linejoin:miter;stroke-opacity:1"
       xml:space="preserve"><tspan
         y="-81.790359"
         x="371.4014"
         id="tspan4182"
         sodipodi:role="line">t</tspan></text>
    <path
       sodipodi:nodetypes="cccc"
       inkscape:connector-curvature="0"
       id="path4184"
       title="sin(x)"
       d="m 244.97989,-69.49081 137.41378,0 m -137.41378,60.9852815 0,-131.4852815"
       style="color:#000000;clip-rule:nonzero;display:inline;overflow:visible;visibility:visible;opacity:1;isolation:auto;mix-blend-mode:normal;color-interpolation:sRGB;color-interpolation-filters:linearRGB;solid-color:#000000;solid-opacity:1;fill:none;fill-opacity:1;fill-rule:evenodd;stroke:#000000;stroke-width:2;stroke-linecap:butt;stroke-linejoin:miter;stroke-miterlimit:4;stroke-dasharray:none;stroke-dashoffset:0;stroke-opacity:1;color-rendering:auto;image-rendering:auto;shape-rendering:auto;text-rendering:auto;enable-background:accumulate" />
    <path
       sodipodi:nodetypes="ccccc"
       inkscape:connector-curvature="0"
       id="path4186"
       d="m 244.93417,-136.66866 -2.61821,2.86757 2.68724,-15.74884 2.57347,15.76263 -2.65391,-2.89516"
       style="color:#000000;clip-rule:nonzero;display:inline;overflow:visible;visibility:visible;opacity:1;isolation:auto;mix-blend-mode:normal;color-interpolation:sRGB;color-interpolation-filters:linearRGB;solid-color:#000000;solid-opacity:1;fill:#000000;fill-opacity:1;fill-rule:evenodd;stroke:#000000;stroke-width:0.5;stroke-linecap:butt;stroke-linejoin:miter;stroke-miterlimit:4;stroke-dasharray:none;stroke-dashoffset:0;stroke-opacity:1;color-rendering:auto;image-rendering:auto;shape-rendering:auto;text-rendering:auto;enable-background:accumulate" />
    <path
       style="color:#000000;clip-rule:nonzero;display:inline;overflow:visible;visibility:visible;opacity:1;isolation:auto;mix-blend-mode:normal;color-interpolation:sRGB;color-interpolation-filters:linearRGB;solid-color:#000000;solid-opacity:1;fill:#000000;fill-opacity:1;fill-rule:evenodd;stroke:#000000;stroke-width:0.5;stroke-linecap:butt;stroke-linejoin:miter;stroke-miterlimit:4;stroke-dasharray:none;stroke-dashoffset:0;stroke-opacity:1;color-rendering:auto;image-rendering:auto;shape-rendering:auto;text-rendering:auto;enable-background:accumulate"
       d="m 378.96855,-69.49326 -2.86757,-2.61821 15.74884,2.68724 -15.76263,2.57347 2.89516,-2.65391"
       id="path4188"
       inkscape:connector-curvature="0"
       sodipodi:nodetypes="ccccc" />
    <text
       sodipodi:linespacing="125%"
       id="text4190"
       y="-118.64871"
       x="214.97989"
       style="font-style:normal;font-variant:normal;font-weight:normal;font-stretch:normal;font-size:17.5px;line-height:125%;font-family:sans-serif;-inkscape-font-specification:'sans-serif, Normal';text-align:start;letter-spacing:0px;word-spacing:0px;writing-mode:lr-tb;text-anchor:start;fill:#000000;fill-opacity:1;stroke:none;stroke-width:1px;stroke-linecap:butt;stroke-linejoin:miter;stroke-opacity:1"
       xml:space="preserve"><tspan
         y="-118.64871"
         x="214.97989"
         id="tspan4192"
         sodipodi:role="line">U<tspan
   id="tspan4194"
   style="font-size:64.99999762%;baseline-shift:sub">m</tspan></tspan></text>
    <text
       sodipodi:linespacing="125%"
       id="text4196"
       y="-138.26775"
       x="253.17075"
       style="font-style:normal;font-variant:normal;font-weight:normal;font-stretch:normal;font-size:17.5px;line-height:125%;font-family:sans-serif;-inkscape-font-specification:'sans-serif, Normal';text-align:start;letter-spacing:0px;word-spacing:0px;writing-mode:lr-tb;text-anchor:start;fill:#000000;fill-opacity:1;stroke:none;stroke-width:1px;stroke-linecap:butt;stroke-linejoin:miter;stroke-opacity:1"
       xml:space="preserve"><tspan
         y="-138.26775"
         x="253.17075"
         id="tspan4198"
         sodipodi:role="line">u</tspan></text>
    <text
       sodipodi:linespacing="125%"
       id="text4206"
       y="-63.277855"
       x="227.77573"
       style="font-style:normal;font-variant:normal;font-weight:normal;font-stretch:normal;font-size:17.5px;line-height:125%;font-family:sans-serif;-inkscape-font-specification:'sans-serif, Normal';text-align:start;letter-spacing:0px;word-spacing:0px;writing-mode:lr-tb;text-anchor:start;fill:#000000;fill-opacity:1;stroke:none;stroke-width:1px;stroke-linecap:butt;stroke-linejoin:miter;stroke-opacity:1"
       xml:space="preserve"><tspan
         y="-63.277855"
         x="227.77573"
         id="tspan4208"
         sodipodi:role="line">0</tspan></text>
    <text
       xml:space="preserve"
       style="font-style:normal;font-variant:normal;font-weight:normal;font-stretch:normal;font-size:17.5px;line-height:125%;font-family:sans-serif;-inkscape-font-specification:'sans-serif, Normal';text-align:start;letter-spacing:0px;word-spacing:0px;writing-mode:lr-tb;text-anchor:start;fill:#000000;fill-opacity:1;stroke:none;stroke-width:1px;stroke-linecap:butt;stroke-linejoin:miter;stroke-opacity:1"
       x="171.46429"
       y="-81.790359"
       id="text4620"
       sodipodi:linespacing="125%"><tspan
         sodipodi:role="line"
         id="tspan4622"
         x="171.46429"
         y="-81.790359">t</tspan></text>
    <path
       style="color:#000000;clip-rule:nonzero;display:inline;overflow:visible;visibility:visible;opacity:1;isolation:auto;mix-blend-mode:normal;color-interpolation:sRGB;color-interpolation-filters:linearRGB;solid-color:#000000;solid-opacity:1;fill:none;fill-opacity:1;fill-rule:evenodd;stroke:#000000;stroke-width:2;stroke-linecap:butt;stroke-linejoin:miter;stroke-miterlimit:4;stroke-dasharray:none;stroke-dashoffset:0;stroke-opacity:1;color-rendering:auto;image-rendering:auto;shape-rendering:auto;text-rendering:auto;enable-background:accumulate"
       d="m 36.042801,-69.49081 143.413779,0 m -143.413779,60.9852815 0,-131.4852815"
       title="sin(x)"
       id="path4649"
       inkscape:connector-curvature="0"
       sodipodi:nodetypes="cccc" />
    <path
       style="color:#000000;clip-rule:nonzero;display:inline;overflow:visible;visibility:visible;opacity:1;isolation:auto;mix-blend-mode:normal;color-interpolation:sRGB;color-interpolation-filters:linearRGB;solid-color:#000000;solid-opacity:1;fill:#000000;fill-opacity:1;fill-rule:evenodd;stroke:#000000;stroke-width:0.5;stroke-linecap:butt;stroke-linejoin:miter;stroke-miterlimit:4;stroke-dasharray:none;stroke-dashoffset:0;stroke-opacity:1;color-rendering:auto;image-rendering:auto;shape-rendering:auto;text-rendering:auto;enable-background:accumulate"
       d="m 35.99708,-136.66866 -2.61821,2.86757 2.68724,-15.74884 2.57347,15.76263 -2.65391,-2.89516"
       id="path5932"
       inkscape:connector-curvature="0"
       sodipodi:nodetypes="ccccc" />
    <path
       sodipodi:nodetypes="ccccc"
       inkscape:connector-curvature="0"
       id="path5934"
       d="m 179.03146,-69.49326 -2.86757,-2.61821 15.74884,2.68724 -15.76263,2.57347 2.89516,-2.65391"
       style="color:#000000;clip-rule:nonzero;display:inline;overflow:visible;visibility:visible;opacity:1;isolation:auto;mix-blend-mode:normal;color-interpolation:sRGB;color-interpolation-filters:linearRGB;solid-color:#000000;solid-opacity:1;fill:#000000;fill-opacity:1;fill-rule:evenodd;stroke:#000000;stroke-width:0.5;stroke-linecap:butt;stroke-linejoin:miter;stroke-miterlimit:4;stroke-dasharray:none;stroke-dashoffset:0;stroke-opacity:1;color-rendering:auto;image-rendering:auto;shape-rendering:auto;text-rendering:auto;enable-background:accumulate" />
    <text
       xml:space="preserve"
       style="font-style:normal;font-variant:normal;font-weight:normal;font-stretch:normal;font-size:17.5px;line-height:125%;font-family:sans-serif;-inkscape-font-specification:'sans-serif, Normal';text-align:start;letter-spacing:0px;word-spacing:0px;writing-mode:lr-tb;text-anchor:start;fill:#000000;fill-opacity:1;stroke:none;stroke-width:1px;stroke-linecap:butt;stroke-linejoin:miter;stroke-opacity:1"
       x="6.042799"
       y="-118.64871"
       id="text5950"
       sodipodi:linespacing="125%"><tspan
         sodipodi:role="line"
         id="tspan5952"
         x="6.042799"
         y="-118.64871">U<tspan
   style="font-size:64.99999762%;baseline-shift:sub"
   id="tspan5954">m</tspan></tspan></text>
    <text
       xml:space="preserve"
       style="font-style:normal;font-variant:normal;font-weight:normal;font-stretch:normal;font-size:17.5px;line-height:125%;font-family:sans-serif;-inkscape-font-specification:'sans-serif, Normal';text-align:start;letter-spacing:0px;word-spacing:0px;writing-mode:lr-tb;text-anchor:start;fill:#000000;fill-opacity:1;stroke:none;stroke-width:1px;stroke-linecap:butt;stroke-linejoin:miter;stroke-opacity:1"
       x="44.233654"
       y="-138.26775"
       id="text4165"
       sodipodi:linespacing="125%"><tspan
         sodipodi:role="line"
         id="tspan4167"
         x="44.233654"
         y="-138.26775">u</tspan></text>
    <text
       xml:space="preserve"
       style="font-style:normal;font-variant:normal;font-weight:normal;font-stretch:normal;font-size:17.5px;line-height:125%;font-family:sans-serif;-inkscape-font-specification:'sans-serif, Normal';text-align:start;letter-spacing:0px;word-spacing:0px;writing-mode:lr-tb;text-anchor:start;fill:#000000;fill-opacity:1;stroke:none;stroke-width:1px;stroke-linecap:butt;stroke-linejoin:miter;stroke-opacity:1"
       x="18.838638"
       y="-63.277855"
       id="text4157"
       sodipodi:linespacing="125%"><tspan
         sodipodi:role="line"
         id="tspan4159"
         x="18.838638"
         y="-63.277855">0</tspan></text>
    <text
       xml:space="preserve"
       style="font-style:normal;font-variant:normal;font-weight:normal;font-stretch:normal;font-size:17.5px;line-height:125%;font-family:sans-serif;-inkscape-font-specification:'sans-serif, Normal';text-align:start;letter-spacing:0px;word-spacing:0px;writing-mode:lr-tb;text-anchor:start;fill:#000000;fill-opacity:1;stroke:none;stroke-width:1px;stroke-linecap:butt;stroke-linejoin:miter;stroke-opacity:1"
       x="93.77784"
       y="18.211"
       id="text4442"
       sodipodi:linespacing="125%"><tspan
         sodipodi:role="line"
         id="tspan4444"
         x="93.77784"
         y="18.211">А</tspan></text>
    <text
       xml:space="preserve"
       style="font-style:normal;font-variant:normal;font-weight:normal;font-stretch:normal;font-size:17.5px;line-height:125%;font-family:sans-serif;-inkscape-font-specification:'sans-serif, Normal';text-align:start;letter-spacing:0px;word-spacing:0px;writing-mode:lr-tb;text-anchor:start;fill:#000000;fill-opacity:1;stroke:none;stroke-width:1px;stroke-linecap:butt;stroke-linejoin:miter;stroke-opacity:1"
       x="297.95432"
       y="18.211"
       id="text4446"
       sodipodi:linespacing="125%"><tspan
         sodipodi:role="line"
         id="tspan4448"
         x="297.95432"
         y="18.211">Б</tspan></text>
    <text
       xml:space="preserve"
       style="font-style:normal;font-variant:normal;font-weight:normal;font-stretch:normal;font-size:17.5px;line-height:125%;font-family:sans-serif;-inkscape-font-specification:'sans-serif, Normal';text-align:start;letter-spacing:0px;word-spacing:0px;writing-mode:lr-tb;text-anchor:start;fill:#000000;fill-opacity:1;stroke:none;stroke-width:1px;stroke-linecap:butt;stroke-linejoin:miter;stroke-opacity:1"
       x="497.14142"
       y="18.211"
       id="text4450"
       sodipodi:linespacing="125%"><tspan
         sodipodi:role="line"
         id="tspan4452"
         x="497.14142"
         y="18.211">В</tspan></text>
    <path
       id="path14169"
       title="(sin(x))*(sin(x))*(sin(x))"
       d="m 248.84726,-70.289 c 1.41379,-10e-7 2.82759,-0.06032 4.24138,-1.660249 1.41379,-1.599924 2.82759,-4.812224 4.24138,-9.643212 1.41379,-4.830987 2.82758,-11.242507 4.24138,-17.61477 1.41379,-6.372259 2.82758,-12.586869 4.24138,-16.705729 1.41379,-4.11885 2.82758,-6.04402 4.24138,-5.15198 1.41379,0.89203 2.82758,4.59607 4.24138,9.88899 1.41379,5.29293 2.82758,12.073973 4.24137,18.307563 1.4138,6.23359 2.82759,11.814232 4.24138,15.590753 1.4138,3.776521 2.82759,5.732865 4.24138,6.481986 1.4138,0.749121 2.82759,0.379061 4.24138,0.571106 1.4138,0.192045 2.82759,1.060569 4.24138,3.711038 1.4138,2.650469 2.82759,7.121702 4.24138,12.811442 1.41379,5.68974 2.82759,12.524819 4.24138,18.585915 1.41379,6.061097 2.82759,11.224301 4.24138,13.83804 1.41379,2.613739 2.82759,2.608841 4.24138,0 1.41379,-2.608841 2.82759,-7.77857 4.24138,-13.83804 1.41379,-6.05947 2.82758,-12.894022 4.24138,-18.585915 1.41379,-5.691893 2.82758,-10.157646 4.24138,-12.811442 1.41379,-2.653797 2.82758,-3.517849 4.24138,-3.711038 1.41379,-0.19319 2.82758,0.17586 4.24138,-0.571106 1.41379,-0.746966 2.82758,-2.708805 4.24138,-6.481986 1.41379,-3.773181 2.82758,-9.35822 4.24137,-15.590753 1.4138,-6.232533 2.82759,-13.011683 4.24138,-18.307563 1.4138,-5.29587 2.82759,-8.99162 4.24138,-9.88899 1.4138,-0.89737 2.82759,1.03721 4.24138,5.15198 1.4138,4.11478 2.82759,10.33371 4.24138,16.705729 1.41379,6.372016 2.82759,12.780845 4.24138,17.61477 1.41379,4.833926 2.82759,8.040374 4.24138,9.643212 1.41379,1.602839 2.82759,1.660248 4.24138,1.660249"
       style="color:#000000;clip-rule:nonzero;display:inline;overflow:visible;visibility:visible;opacity:1;isolation:auto;mix-blend-mode:normal;color-interpolation:sRGB;color-interpolation-filters:linearRGB;solid-color:#000000;solid-opacity:1;fill:none;fill-opacity:1;fill-rule:evenodd;stroke:#000000;stroke-width:2;stroke-linecap:butt;stroke-linejoin:miter;stroke-miterlimit:4;stroke-dasharray:none;stroke-dashoffset:0;stroke-opacity:1;color-rendering:auto;image-rendering:auto;shape-rendering:auto;text-rendering:auto;enable-background:accumulate"
       inkscape:connector-curvature="0" />
    <g
       id="g4207"
       transform="matrix(0.82274513,0,0,1,6.5723588,0)">
      <g
         transform="translate(11.136932,0)"
         id="g4191">
        <path
           inkscape:connector-curvature="0"
           style="color:#000000;clip-rule:nonzero;display:inline;overflow:visible;visibility:visible;opacity:1;isolation:auto;mix-blend-mode:normal;color-interpolation:sRGB;color-interpolation-filters:linearRGB;solid-color:#000000;solid-opacity:1;fill:none;fill-opacity:1;fill-rule:evenodd;stroke:#000000;stroke-width:2.20494294;stroke-linecap:butt;stroke-linejoin:miter;stroke-miterlimit:4;stroke-dasharray:none;stroke-dashoffset:0;stroke-opacity:1;color-rendering:auto;image-rendering:auto;shape-rendering:auto;text-rendering:auto;enable-background:accumulate"
           d="m 46.769356,-69.228339 0,-48.503881 c 0.353553,-0.34142 0.707107,-0.64871 1.06066,-0.92122 0.353553,-0.27251 0.707107,-0.5101 1.06066,-0.71248 0.353553,-0.20239 0.707107,-0.36934 1.06066,-0.50074 0.353553,-0.1314 0.707107,-0.22702 1.06066,-0.28688 0.353553,-0.0599 0.707107,-0.0837 1.06066,-0.0718 0.353553,0.0119 0.707107,0.0599 1.06066,0.14357 0.353553,0.0837 0.707107,0.20328 1.06066,0.35834 0.353553,0.15507 0.707107,0.34581 1.06066,0.5716 0.353553,0.2258 0.707107,0.48687 1.06066,0.78245 0.353553,0.29557 0.707107,0.62587 1.06066,0.98998 0.353553,0.36411 0.707107,0.76223 1.06066,1.19333 0.353553,0.43111 0.707107,0.89538 1.06066,1.39166 0.353553,0.49627 0.707107,1.02474 1.06066,1.58409 0.353553,0.55935 0.707107,1.14978 1.06066,1.76985 0.353553,0.62006 0.707107,1.26995 1.06066,1.94812 0.353553,0.67816 0.707107,1.38477 1.06066,2.11816 0.353553,0.7334 0.707107,1.49374 1.06066,2.27927 0.353553,0.78553 0.707107,1.5964 1.06066,2.43074 0.353553,0.83435 0.707107,1.69232 1.06066,2.57196 0.353553,0.879639 0.707107,1.781083 1.06066,2.702301 0.353553,0.921219 0.707107,1.862331 1.06066,2.821238 0.353553,0.958906 0.707107,1.935713 1.06066,2.928257 0.353553,0.992545 0.707107,2.000921 1.06066,3.022911 0.353553,1.021991 0.707107,2.057677 1.06066,3.104798 0.353553,1.04712 0.707107,2.105743 1.06066,3.173571 0.353553,1.067828 0.707107,2.144916 1.06066,3.228942 0.353553,1.084026 0.707107,2.175031 1.06066,3.270677 0.353553,1.095646 0.707107,2.19596 1.06066,3.298598 0.353553,1.102638 0.707107,2.207614 1.06066,3.312588 l 0,0"
           title="sin(x)"
           id="path9589" />
        <path
           id="path4189"
           title="sin(x)"
           d="m 56.48093,-117.73222 c -0.353553,-0.34142 -0.707107,-0.64871 -1.06066,-0.92122 -0.353553,-0.27251 -0.707107,-0.5101 -1.06066,-0.71248 -0.353553,-0.20239 -0.707107,-0.36934 -1.06066,-0.50074 -0.353553,-0.1314 -0.707107,-0.22702 -1.06066,-0.28688 -0.353553,-0.0599 -0.707107,-0.0837 -1.06066,-0.0718 -0.353553,0.0119 -0.707107,0.0599 -1.06066,0.14357 -0.353553,0.0837 -0.707107,0.20328 -1.06066,0.35834 -0.353553,0.15507 -0.707107,0.34581 -1.06066,0.5716 -0.353553,0.2258 -0.707107,0.48687 -1.06066,0.78245 -0.353553,0.29557 -0.707107,0.62587 -1.06066,0.98998 -0.353553,0.36411 -0.707107,0.76223 -1.06066,1.19333 -0.353553,0.43111 -0.707107,0.89538 -1.06066,1.39166 -0.353553,0.49627 -0.707107,1.02474 -1.06066,1.58409 -0.353553,0.55935 -0.707107,1.14978 -1.06066,1.76985 -0.353553,0.62006 -0.707107,1.26995 -1.06066,1.94812 -0.353553,0.67816 -0.707107,1.38477 -1.06066,2.11816 -0.353553,0.7334 -0.707107,1.49374 -1.06066,2.27927 -0.353553,0.78553 -0.707107,1.5964 -1.06066,2.43074 -0.353553,0.83435 -0.707107,1.69232 -1.06066,2.57196 -0.353553,0.879639 -0.707107,1.781083 -1.06066,2.702301 -0.353553,0.921219 -0.707107,1.862331 -1.06066,2.821238 -0.353553,0.958906 -0.707107,1.935713 -1.06066,2.928257 -0.353553,0.992545 -0.707107,2.000921 -1.06066,3.022911 -0.353553,1.021991 -0.707107,2.057677 -1.06066,3.104798 -0.353553,1.04712 -0.707107,2.105743 -1.06066,3.173571 -0.353553,1.067828 -0.707107,2.144916 -1.06066,3.228942 -0.353553,1.084026 -0.707107,2.175031 -1.06066,3.270677 -0.353553,1.095646 -0.707107,2.19596 -1.06066,3.298598 -0.353553,1.102638 -0.707107,2.207614 -1.06066,3.312588 l 0,0"
           style="color:#000000;clip-rule:nonzero;display:inline;overflow:visible;visibility:visible;opacity:1;isolation:auto;mix-blend-mode:normal;color-interpolation:sRGB;color-interpolation-filters:linearRGB;solid-color:#000000;solid-opacity:1;fill:none;fill-opacity:1;fill-rule:evenodd;stroke:#000000;stroke-width:1.10247147;stroke-linecap:butt;stroke-linejoin:miter;stroke-miterlimit:4;stroke-dasharray:6.6148285, 6.6148285;stroke-dashoffset:0;stroke-opacity:1;color-rendering:auto;image-rendering:auto;shape-rendering:auto;text-rendering:auto;enable-background:accumulate"
           inkscape:connector-curvature="0"
           sodipodi:nodetypes="cscscsccccssssssssssssssssssscc" />
      </g>
      <g
         id="g4195"
         transform="matrix(1,0,0,-1,63.109281,-139.60561)">
        <path
           id="path4197"
           title="sin(x)"
           d="m 46.769356,-69.228339 0,-48.503881 c 0.353553,-0.34142 0.707107,-0.64871 1.06066,-0.92122 0.353553,-0.27251 0.707107,-0.5101 1.06066,-0.71248 0.353553,-0.20239 0.707107,-0.36934 1.06066,-0.50074 0.353553,-0.1314 0.707107,-0.22702 1.06066,-0.28688 0.353553,-0.0599 0.707107,-0.0837 1.06066,-0.0718 0.353553,0.0119 0.707107,0.0599 1.06066,0.14357 0.353553,0.0837 0.707107,0.20328 1.06066,0.35834 0.353553,0.15507 0.707107,0.34581 1.06066,0.5716 0.353553,0.2258 0.707107,0.48687 1.06066,0.78245 0.353553,0.29557 0.707107,0.62587 1.06066,0.98998 0.353553,0.36411 0.707107,0.76223 1.06066,1.19333 0.353553,0.43111 0.707107,0.89538 1.06066,1.39166 0.353553,0.49627 0.707107,1.02474 1.06066,1.58409 0.353553,0.55935 0.707107,1.14978 1.06066,1.76985 0.353553,0.62006 0.707107,1.26995 1.06066,1.94812 0.353553,0.67816 0.707107,1.38477 1.06066,2.11816 0.353553,0.7334 0.707107,1.49374 1.06066,2.27927 0.353553,0.78553 0.707107,1.5964 1.06066,2.43074 0.353553,0.83435 0.707107,1.69232 1.06066,2.57196 0.353553,0.879639 0.707107,1.781083 1.06066,2.702301 0.353553,0.921219 0.707107,1.862331 1.06066,2.821238 0.353553,0.958906 0.707107,1.935713 1.06066,2.928257 0.353553,0.992545 0.707107,2.000921 1.06066,3.022911 0.353553,1.021991 0.707107,2.057677 1.06066,3.104798 0.353553,1.04712 0.707107,2.105743 1.06066,3.173571 0.353553,1.067828 0.707107,2.144916 1.06066,3.228942 0.353553,1.084026 0.707107,2.175031 1.06066,3.270677 0.353553,1.095646 0.707107,2.19596 1.06066,3.298598 0.353553,1.102638 0.707107,2.207614 1.06066,3.312588 l 0,0"
           style="color:#000000;clip-rule:nonzero;display:inline;overflow:visible;visibility:visible;opacity:1;isolation:auto;mix-blend-mode:normal;color-interpolation:sRGB;color-interpolation-filters:linearRGB;solid-color:#000000;solid-opacity:1;fill:none;fill-opacity:1;fill-rule:evenodd;stroke:#000000;stroke-width:2.20494294;stroke-linecap:butt;stroke-linejoin:miter;stroke-miterlimit:4;stroke-dasharray:none;stroke-dashoffset:0;stroke-opacity:1;color-rendering:auto;image-rendering:auto;shape-rendering:auto;text-rendering:auto;enable-background:accumulate"
           inkscape:connector-curvature="0" />
        <path
           sodipodi:nodetypes="cscscsccccssssssssssssssssssscc"
           inkscape:connector-curvature="0"
           style="color:#000000;clip-rule:nonzero;display:inline;overflow:visible;visibility:visible;opacity:1;isolation:auto;mix-blend-mode:normal;color-interpolation:sRGB;color-interpolation-filters:linearRGB;solid-color:#000000;solid-opacity:1;fill:none;fill-opacity:1;fill-rule:evenodd;stroke:#000000;stroke-width:1.10247147;stroke-linecap:butt;stroke-linejoin:miter;stroke-miterlimit:4;stroke-dasharray:6.6148285, 6.6148285;stroke-dashoffset:0;stroke-opacity:1;color-rendering:auto;image-rendering:auto;shape-rendering:auto;text-rendering:auto;enable-background:accumulate"
           d="m 56.48093,-117.73222 c -0.353553,-0.34142 -0.707107,-0.64871 -1.06066,-0.92122 -0.353553,-0.27251 -0.707107,-0.5101 -1.06066,-0.71248 -0.353553,-0.20239 -0.707107,-0.36934 -1.06066,-0.50074 -0.353553,-0.1314 -0.707107,-0.22702 -1.06066,-0.28688 -0.353553,-0.0599 -0.707107,-0.0837 -1.06066,-0.0718 -0.353553,0.0119 -0.707107,0.0599 -1.06066,0.14357 -0.353553,0.0837 -0.707107,0.20328 -1.06066,0.35834 -0.353553,0.15507 -0.707107,0.34581 -1.06066,0.5716 -0.353553,0.2258 -0.707107,0.48687 -1.06066,0.78245 -0.353553,0.29557 -0.707107,0.62587 -1.06066,0.98998 -0.353553,0.36411 -0.707107,0.76223 -1.06066,1.19333 -0.353553,0.43111 -0.707107,0.89538 -1.06066,1.39166 -0.353553,0.49627 -0.707107,1.02474 -1.06066,1.58409 -0.353553,0.55935 -0.707107,1.14978 -1.06066,1.76985 -0.353553,0.62006 -0.707107,1.26995 -1.06066,1.94812 -0.353553,0.67816 -0.707107,1.38477 -1.06066,2.11816 -0.353553,0.7334 -0.707107,1.49374 -1.06066,2.27927 -0.353553,0.78553 -0.707107,1.5964 -1.06066,2.43074 -0.353553,0.83435 -0.707107,1.69232 -1.06066,2.57196 -0.353553,0.879639 -0.707107,1.781083 -1.06066,2.702301 -0.353553,0.921219 -0.707107,1.862331 -1.06066,2.821238 -0.353553,0.958906 -0.707107,1.935713 -1.06066,2.928257 -0.353553,0.992545 -0.707107,2.000921 -1.06066,3.022911 -0.353553,1.021991 -0.707107,2.057677 -1.06066,3.104798 -0.353553,1.04712 -0.707107,2.105743 -1.06066,3.173571 -0.353553,1.067828 -0.707107,2.144916 -1.06066,3.228942 -0.353553,1.084026 -0.707107,2.175031 -1.06066,3.270677 -0.353553,1.095646 -0.707107,2.19596 -1.06066,3.298598 -0.353553,1.102638 -0.707107,2.207614 -1.06066,3.312588 l 0,0"
           title="sin(x)"
           id="path4199" />
      </g>
      <g
         id="g4201"
         transform="translate(115.08163,0)">
        <path
           id="path4203"
           title="sin(x)"
           d="m 46.769356,-69.228339 0,-48.503881 c 0.353553,-0.34142 0.707107,-0.64871 1.06066,-0.92122 0.353553,-0.27251 0.707107,-0.5101 1.06066,-0.71248 0.353553,-0.20239 0.707107,-0.36934 1.06066,-0.50074 0.353553,-0.1314 0.707107,-0.22702 1.06066,-0.28688 0.353553,-0.0599 0.707107,-0.0837 1.06066,-0.0718 0.353553,0.0119 0.707107,0.0599 1.06066,0.14357 0.353553,0.0837 0.707107,0.20328 1.06066,0.35834 0.353553,0.15507 0.707107,0.34581 1.06066,0.5716 0.353553,0.2258 0.707107,0.48687 1.06066,0.78245 0.353553,0.29557 0.707107,0.62587 1.06066,0.98998 0.353553,0.36411 0.707107,0.76223 1.06066,1.19333 0.353553,0.43111 0.707107,0.89538 1.06066,1.39166 0.353553,0.49627 0.707107,1.02474 1.06066,1.58409 0.353553,0.55935 0.707107,1.14978 1.06066,1.76985 0.353553,0.62006 0.707107,1.26995 1.06066,1.94812 0.353553,0.67816 0.707107,1.38477 1.06066,2.11816 0.353553,0.7334 0.707107,1.49374 1.06066,2.27927 0.353553,0.78553 0.707107,1.5964 1.06066,2.43074 0.353553,0.83435 0.707107,1.69232 1.06066,2.57196 0.353553,0.879639 0.707107,1.781083 1.06066,2.702301 0.353553,0.921219 0.707107,1.862331 1.06066,2.821238 0.353553,0.958906 0.707107,1.935713 1.06066,2.928257 0.353553,0.992545 0.707107,2.000921 1.06066,3.022911 0.353553,1.021991 0.707107,2.057677 1.06066,3.104798 0.353553,1.04712 0.707107,2.105743 1.06066,3.173571 0.353553,1.067828 0.707107,2.144916 1.06066,3.228942 0.353553,1.084026 0.707107,2.175031 1.06066,3.270677 0.353553,1.095646 0.707107,2.19596 1.06066,3.298598 0.353553,1.102638 0.707107,2.207614 1.06066,3.312588 l 0,0"
           style="color:#000000;clip-rule:nonzero;display:inline;overflow:visible;visibility:visible;opacity:1;isolation:auto;mix-blend-mode:normal;color-interpolation:sRGB;color-interpolation-filters:linearRGB;solid-color:#000000;solid-opacity:1;fill:none;fill-opacity:1;fill-rule:evenodd;stroke:#000000;stroke-width:2.20494294;stroke-linecap:butt;stroke-linejoin:miter;stroke-miterlimit:4;stroke-dasharray:none;stroke-dashoffset:0;stroke-opacity:1;color-rendering:auto;image-rendering:auto;shape-rendering:auto;text-rendering:auto;enable-background:accumulate"
           inkscape:connector-curvature="0" />
        <path
           sodipodi:nodetypes="cscscsccccssssssssssssssssssscc"
           inkscape:connector-curvature="0"
           style="color:#000000;clip-rule:nonzero;display:inline;overflow:visible;visibility:visible;opacity:1;isolation:auto;mix-blend-mode:normal;color-interpolation:sRGB;color-interpolation-filters:linearRGB;solid-color:#000000;solid-opacity:1;fill:none;fill-opacity:1;fill-rule:evenodd;stroke:#000000;stroke-width:1.10247147;stroke-linecap:butt;stroke-linejoin:miter;stroke-miterlimit:4;stroke-dasharray:6.6148285, 6.6148285;stroke-dashoffset:0;stroke-opacity:1;color-rendering:auto;image-rendering:auto;shape-rendering:auto;text-rendering:auto;enable-background:accumulate"
           d="m 56.48093,-117.73222 c -0.353553,-0.34142 -0.707107,-0.64871 -1.06066,-0.92122 -0.353553,-0.27251 -0.707107,-0.5101 -1.06066,-0.71248 -0.353553,-0.20239 -0.707107,-0.36934 -1.06066,-0.50074 -0.353553,-0.1314 -0.707107,-0.22702 -1.06066,-0.28688 -0.353553,-0.0599 -0.707107,-0.0837 -1.06066,-0.0718 -0.353553,0.0119 -0.707107,0.0599 -1.06066,0.14357 -0.353553,0.0837 -0.707107,0.20328 -1.06066,0.35834 -0.353553,0.15507 -0.707107,0.34581 -1.06066,0.5716 -0.353553,0.2258 -0.707107,0.48687 -1.06066,0.78245 -0.353553,0.29557 -0.707107,0.62587 -1.06066,0.98998 -0.353553,0.36411 -0.707107,0.76223 -1.06066,1.19333 -0.353553,0.43111 -0.707107,0.89538 -1.06066,1.39166 -0.353553,0.49627 -0.707107,1.02474 -1.06066,1.58409 -0.353553,0.55935 -0.707107,1.14978 -1.06066,1.76985 -0.353553,0.62006 -0.707107,1.26995 -1.06066,1.94812 -0.353553,0.67816 -0.707107,1.38477 -1.06066,2.11816 -0.353553,0.7334 -0.707107,1.49374 -1.06066,2.27927 -0.353553,0.78553 -0.707107,1.5964 -1.06066,2.43074 -0.353553,0.83435 -0.707107,1.69232 -1.06066,2.57196 -0.353553,0.879639 -0.707107,1.781083 -1.06066,2.702301 -0.353553,0.921219 -0.707107,1.862331 -1.06066,2.821238 -0.353553,0.958906 -0.707107,1.935713 -1.06066,2.928257 -0.353553,0.992545 -0.707107,2.000921 -1.06066,3.022911 -0.353553,1.021991 -0.707107,2.057677 -1.06066,3.104798 -0.353553,1.04712 -0.707107,2.105743 -1.06066,3.173571 -0.353553,1.067828 -0.707107,2.144916 -1.06066,3.228942 -0.353553,1.084026 -0.707107,2.175031 -1.06066,3.270677 -0.353553,1.095646 -0.707107,2.19596 -1.06066,3.298598 -0.353553,1.102638 -0.707107,2.207614 -1.06066,3.312588 l 0,0"
           title="sin(x)"
           id="path4205" />
      </g>
    </g>
    <g
       transform="matrix(-0.82274513,0,0,1,603.60936,1.0606602)"
       id="g4218">
      <g
         id="g4220"
         transform="translate(11.136932,0)">
        <path
           id="path4222"
           title="sin(x)"
           d="m 46.769356,-69.228339 0,-48.503881 c 0.353553,-0.34142 0.707107,-0.64871 1.06066,-0.92122 0.353553,-0.27251 0.707107,-0.5101 1.06066,-0.71248 0.353553,-0.20239 0.707107,-0.36934 1.06066,-0.50074 0.353553,-0.1314 0.707107,-0.22702 1.06066,-0.28688 0.353553,-0.0599 0.707107,-0.0837 1.06066,-0.0718 0.353553,0.0119 0.707107,0.0599 1.06066,0.14357 0.353553,0.0837 0.707107,0.20328 1.06066,0.35834 0.353553,0.15507 0.707107,0.34581 1.06066,0.5716 0.353553,0.2258 0.707107,0.48687 1.06066,0.78245 0.353553,0.29557 0.707107,0.62587 1.06066,0.98998 0.353553,0.36411 0.707107,0.76223 1.06066,1.19333 0.353553,0.43111 0.707107,0.89538 1.06066,1.39166 0.353553,0.49627 0.707107,1.02474 1.06066,1.58409 0.353553,0.55935 0.707107,1.14978 1.06066,1.76985 0.353553,0.62006 0.707107,1.26995 1.06066,1.94812 0.353553,0.67816 0.707107,1.38477 1.06066,2.11816 0.353553,0.7334 0.707107,1.49374 1.06066,2.27927 0.353553,0.78553 0.707107,1.5964 1.06066,2.43074 0.353553,0.83435 0.707107,1.69232 1.06066,2.57196 0.353553,0.879639 0.707107,1.781083 1.06066,2.702301 0.353553,0.921219 0.707107,1.862331 1.06066,2.821238 0.353553,0.958906 0.707107,1.935713 1.06066,2.928257 0.353553,0.992545 0.707107,2.000921 1.06066,3.022911 0.353553,1.021991 0.707107,2.057677 1.06066,3.104798 0.353553,1.04712 0.707107,2.105743 1.06066,3.173571 0.353553,1.067828 0.707107,2.144916 1.06066,3.228942 0.353553,1.084026 0.707107,2.175031 1.06066,3.270677 0.353553,1.095646 0.707107,2.19596 1.06066,3.298598 0.353553,1.102638 0.707107,2.207614 1.06066,3.312588 l 0,0"
           style="color:#000000;clip-rule:nonzero;display:inline;overflow:visible;visibility:visible;opacity:1;isolation:auto;mix-blend-mode:normal;color-interpolation:sRGB;color-interpolation-filters:linearRGB;solid-color:#000000;solid-opacity:1;fill:none;fill-opacity:1;fill-rule:evenodd;stroke:#000000;stroke-width:2.20494294;stroke-linecap:butt;stroke-linejoin:miter;stroke-miterlimit:4;stroke-dasharray:none;stroke-dashoffset:0;stroke-opacity:1;color-rendering:auto;image-rendering:auto;shape-rendering:auto;text-rendering:auto;enable-background:accumulate"
           inkscape:connector-curvature="0" />
        <path
           sodipodi:nodetypes="cscscsccccssssssssssssssssssscc"
           inkscape:connector-curvature="0"
           style="color:#000000;clip-rule:nonzero;display:inline;overflow:visible;visibility:visible;opacity:1;isolation:auto;mix-blend-mode:normal;color-interpolation:sRGB;color-interpolation-filters:linearRGB;solid-color:#000000;solid-opacity:1;fill:none;fill-opacity:1;fill-rule:evenodd;stroke:#000000;stroke-width:1.10247147;stroke-linecap:butt;stroke-linejoin:miter;stroke-miterlimit:4;stroke-dasharray:6.6148285, 6.6148285;stroke-dashoffset:0;stroke-opacity:1;color-rendering:auto;image-rendering:auto;shape-rendering:auto;text-rendering:auto;enable-background:accumulate"
           d="m 56.48093,-117.73222 c -0.353553,-0.34142 -0.707107,-0.64871 -1.06066,-0.92122 -0.353553,-0.27251 -0.707107,-0.5101 -1.06066,-0.71248 -0.353553,-0.20239 -0.707107,-0.36934 -1.06066,-0.50074 -0.353553,-0.1314 -0.707107,-0.22702 -1.06066,-0.28688 -0.353553,-0.0599 -0.707107,-0.0837 -1.06066,-0.0718 -0.353553,0.0119 -0.707107,0.0599 -1.06066,0.14357 -0.353553,0.0837 -0.707107,0.20328 -1.06066,0.35834 -0.353553,0.15507 -0.707107,0.34581 -1.06066,0.5716 -0.353553,0.2258 -0.707107,0.48687 -1.06066,0.78245 -0.353553,0.29557 -0.707107,0.62587 -1.06066,0.98998 -0.353553,0.36411 -0.707107,0.76223 -1.06066,1.19333 -0.353553,0.43111 -0.707107,0.89538 -1.06066,1.39166 -0.353553,0.49627 -0.707107,1.02474 -1.06066,1.58409 -0.353553,0.55935 -0.707107,1.14978 -1.06066,1.76985 -0.353553,0.62006 -0.707107,1.26995 -1.06066,1.94812 -0.353553,0.67816 -0.707107,1.38477 -1.06066,2.11816 -0.353553,0.7334 -0.707107,1.49374 -1.06066,2.27927 -0.353553,0.78553 -0.707107,1.5964 -1.06066,2.43074 -0.353553,0.83435 -0.707107,1.69232 -1.06066,2.57196 -0.353553,0.879639 -0.707107,1.781083 -1.06066,2.702301 -0.353553,0.921219 -0.707107,1.862331 -1.06066,2.821238 -0.353553,0.958906 -0.707107,1.935713 -1.06066,2.928257 -0.353553,0.992545 -0.707107,2.000921 -1.06066,3.022911 -0.353553,1.021991 -0.707107,2.057677 -1.06066,3.104798 -0.353553,1.04712 -0.707107,2.105743 -1.06066,3.173571 -0.353553,1.067828 -0.707107,2.144916 -1.06066,3.228942 -0.353553,1.084026 -0.707107,2.175031 -1.06066,3.270677 -0.353553,1.095646 -0.707107,2.19596 -1.06066,3.298598 -0.353553,1.102638 -0.707107,2.207614 -1.06066,3.312588 l 0,0"
           title="sin(x)"
           id="path4224" />
      </g>
      <g
         transform="matrix(1,0,0,-1,63.109281,-139.60561)"
         id="g4226">
        <path
           inkscape:connector-curvature="0"
           style="color:#000000;clip-rule:nonzero;display:inline;overflow:visible;visibility:visible;opacity:1;isolation:auto;mix-blend-mode:normal;color-interpolation:sRGB;color-interpolation-filters:linearRGB;solid-color:#000000;solid-opacity:1;fill:none;fill-opacity:1;fill-rule:evenodd;stroke:#000000;stroke-width:2.20494294;stroke-linecap:butt;stroke-linejoin:miter;stroke-miterlimit:4;stroke-dasharray:none;stroke-dashoffset:0;stroke-opacity:1;color-rendering:auto;image-rendering:auto;shape-rendering:auto;text-rendering:auto;enable-background:accumulate"
           d="m 46.769356,-69.228339 0,-48.503881 c 0.353553,-0.34142 0.707107,-0.64871 1.06066,-0.92122 0.353553,-0.27251 0.707107,-0.5101 1.06066,-0.71248 0.353553,-0.20239 0.707107,-0.36934 1.06066,-0.50074 0.353553,-0.1314 0.707107,-0.22702 1.06066,-0.28688 0.353553,-0.0599 0.707107,-0.0837 1.06066,-0.0718 0.353553,0.0119 0.707107,0.0599 1.06066,0.14357 0.353553,0.0837 0.707107,0.20328 1.06066,0.35834 0.353553,0.15507 0.707107,0.34581 1.06066,0.5716 0.353553,0.2258 0.707107,0.48687 1.06066,0.78245 0.353553,0.29557 0.707107,0.62587 1.06066,0.98998 0.353553,0.36411 0.707107,0.76223 1.06066,1.19333 0.353553,0.43111 0.707107,0.89538 1.06066,1.39166 0.353553,0.49627 0.707107,1.02474 1.06066,1.58409 0.353553,0.55935 0.707107,1.14978 1.06066,1.76985 0.353553,0.62006 0.707107,1.26995 1.06066,1.94812 0.353553,0.67816 0.707107,1.38477 1.06066,2.11816 0.353553,0.7334 0.707107,1.49374 1.06066,2.27927 0.353553,0.78553 0.707107,1.5964 1.06066,2.43074 0.353553,0.83435 0.707107,1.69232 1.06066,2.57196 0.353553,0.879639 0.707107,1.781083 1.06066,2.702301 0.353553,0.921219 0.707107,1.862331 1.06066,2.821238 0.353553,0.958906 0.707107,1.935713 1.06066,2.928257 0.353553,0.992545 0.707107,2.000921 1.06066,3.022911 0.353553,1.021991 0.707107,2.057677 1.06066,3.104798 0.353553,1.04712 0.707107,2.105743 1.06066,3.173571 0.353553,1.067828 0.707107,2.144916 1.06066,3.228942 0.353553,1.084026 0.707107,2.175031 1.06066,3.270677 0.353553,1.095646 0.707107,2.19596 1.06066,3.298598 0.353553,1.102638 0.707107,2.207614 1.06066,3.312588 l 0,0"
           title="sin(x)"
           id="path4228" />
        <path
           id="path4230"
           title="sin(x)"
           d="m 56.48093,-117.73222 c -0.353553,-0.34142 -0.707107,-0.64871 -1.06066,-0.92122 -0.353553,-0.27251 -0.707107,-0.5101 -1.06066,-0.71248 -0.353553,-0.20239 -0.707107,-0.36934 -1.06066,-0.50074 -0.353553,-0.1314 -0.707107,-0.22702 -1.06066,-0.28688 -0.353553,-0.0599 -0.707107,-0.0837 -1.06066,-0.0718 -0.353553,0.0119 -0.707107,0.0599 -1.06066,0.14357 -0.353553,0.0837 -0.707107,0.20328 -1.06066,0.35834 -0.353553,0.15507 -0.707107,0.34581 -1.06066,0.5716 -0.353553,0.2258 -0.707107,0.48687 -1.06066,0.78245 -0.353553,0.29557 -0.707107,0.62587 -1.06066,0.98998 -0.353553,0.36411 -0.707107,0.76223 -1.06066,1.19333 -0.353553,0.43111 -0.707107,0.89538 -1.06066,1.39166 -0.353553,0.49627 -0.707107,1.02474 -1.06066,1.58409 -0.353553,0.55935 -0.707107,1.14978 -1.06066,1.76985 -0.353553,0.62006 -0.707107,1.26995 -1.06066,1.94812 -0.353553,0.67816 -0.707107,1.38477 -1.06066,2.11816 -0.353553,0.7334 -0.707107,1.49374 -1.06066,2.27927 -0.353553,0.78553 -0.707107,1.5964 -1.06066,2.43074 -0.353553,0.83435 -0.707107,1.69232 -1.06066,2.57196 -0.353553,0.879639 -0.707107,1.781083 -1.06066,2.702301 -0.353553,0.921219 -0.707107,1.862331 -1.06066,2.821238 -0.353553,0.958906 -0.707107,1.935713 -1.06066,2.928257 -0.353553,0.992545 -0.707107,2.000921 -1.06066,3.022911 -0.353553,1.021991 -0.707107,2.057677 -1.06066,3.104798 -0.353553,1.04712 -0.707107,2.105743 -1.06066,3.173571 -0.353553,1.067828 -0.707107,2.144916 -1.06066,3.228942 -0.353553,1.084026 -0.707107,2.175031 -1.06066,3.270677 -0.353553,1.095646 -0.707107,2.19596 -1.06066,3.298598 -0.353553,1.102638 -0.707107,2.207614 -1.06066,3.312588 l 0,0"
           style="color:#000000;clip-rule:nonzero;display:inline;overflow:visible;visibility:visible;opacity:1;isolation:auto;mix-blend-mode:normal;color-interpolation:sRGB;color-interpolation-filters:linearRGB;solid-color:#000000;solid-opacity:1;fill:none;fill-opacity:1;fill-rule:evenodd;stroke:#000000;stroke-width:1.10247147;stroke-linecap:butt;stroke-linejoin:miter;stroke-miterlimit:4;stroke-dasharray:6.6148285, 6.6148285;stroke-dashoffset:0;stroke-opacity:1;color-rendering:auto;image-rendering:auto;shape-rendering:auto;text-rendering:auto;enable-background:accumulate"
           inkscape:connector-curvature="0"
           sodipodi:nodetypes="cscscsccccssssssssssssssssssscc" />
      </g>
      <g
         transform="translate(115.08163,0)"
         id="g4232">
        <path
           inkscape:connector-curvature="0"
           style="color:#000000;clip-rule:nonzero;display:inline;overflow:visible;visibility:visible;opacity:1;isolation:auto;mix-blend-mode:normal;color-interpolation:sRGB;color-interpolation-filters:linearRGB;solid-color:#000000;solid-opacity:1;fill:none;fill-opacity:1;fill-rule:evenodd;stroke:#000000;stroke-width:2.20494294;stroke-linecap:butt;stroke-linejoin:miter;stroke-miterlimit:4;stroke-dasharray:none;stroke-dashoffset:0;stroke-opacity:1;color-rendering:auto;image-rendering:auto;shape-rendering:auto;text-rendering:auto;enable-background:accumulate"
           d="m 46.769356,-69.228339 0,-48.503881 c 0.353553,-0.34142 0.707107,-0.64871 1.06066,-0.92122 0.353553,-0.27251 0.707107,-0.5101 1.06066,-0.71248 0.353553,-0.20239 0.707107,-0.36934 1.06066,-0.50074 0.353553,-0.1314 0.707107,-0.22702 1.06066,-0.28688 0.353553,-0.0599 0.707107,-0.0837 1.06066,-0.0718 0.353553,0.0119 0.707107,0.0599 1.06066,0.14357 0.353553,0.0837 0.707107,0.20328 1.06066,0.35834 0.353553,0.15507 0.707107,0.34581 1.06066,0.5716 0.353553,0.2258 0.707107,0.48687 1.06066,0.78245 0.353553,0.29557 0.707107,0.62587 1.06066,0.98998 0.353553,0.36411 0.707107,0.76223 1.06066,1.19333 0.353553,0.43111 0.707107,0.89538 1.06066,1.39166 0.353553,0.49627 0.707107,1.02474 1.06066,1.58409 0.353553,0.55935 0.707107,1.14978 1.06066,1.76985 0.353553,0.62006 0.707107,1.26995 1.06066,1.94812 0.353553,0.67816 0.707107,1.38477 1.06066,2.11816 0.353553,0.7334 0.707107,1.49374 1.06066,2.27927 0.353553,0.78553 0.707107,1.5964 1.06066,2.43074 0.353553,0.83435 0.707107,1.69232 1.06066,2.57196 0.353553,0.879639 0.707107,1.781083 1.06066,2.702301 0.353553,0.921219 0.707107,1.862331 1.06066,2.821238 0.353553,0.958906 0.707107,1.935713 1.06066,2.928257 0.353553,0.992545 0.707107,2.000921 1.06066,3.022911 0.353553,1.021991 0.707107,2.057677 1.06066,3.104798 0.353553,1.04712 0.707107,2.105743 1.06066,3.173571 0.353553,1.067828 0.707107,2.144916 1.06066,3.228942 0.353553,1.084026 0.707107,2.175031 1.06066,3.270677 0.353553,1.095646 0.707107,2.19596 1.06066,3.298598 0.353553,1.102638 0.707107,2.207614 1.06066,3.312588 l 0,0"
           title="sin(x)"
           id="path4234" />
        <path
           id="path4236"
           title="sin(x)"
           d="m 56.48093,-117.73222 c -0.353553,-0.34142 -0.707107,-0.64871 -1.06066,-0.92122 -0.353553,-0.27251 -0.707107,-0.5101 -1.06066,-0.71248 -0.353553,-0.20239 -0.707107,-0.36934 -1.06066,-0.50074 -0.353553,-0.1314 -0.707107,-0.22702 -1.06066,-0.28688 -0.353553,-0.0599 -0.707107,-0.0837 -1.06066,-0.0718 -0.353553,0.0119 -0.707107,0.0599 -1.06066,0.14357 -0.353553,0.0837 -0.707107,0.20328 -1.06066,0.35834 -0.353553,0.15507 -0.707107,0.34581 -1.06066,0.5716 -0.353553,0.2258 -0.707107,0.48687 -1.06066,0.78245 -0.353553,0.29557 -0.707107,0.62587 -1.06066,0.98998 -0.353553,0.36411 -0.707107,0.76223 -1.06066,1.19333 -0.353553,0.43111 -0.707107,0.89538 -1.06066,1.39166 -0.353553,0.49627 -0.707107,1.02474 -1.06066,1.58409 -0.353553,0.55935 -0.707107,1.14978 -1.06066,1.76985 -0.353553,0.62006 -0.707107,1.26995 -1.06066,1.94812 -0.353553,0.67816 -0.707107,1.38477 -1.06066,2.11816 -0.353553,0.7334 -0.707107,1.49374 -1.06066,2.27927 -0.353553,0.78553 -0.707107,1.5964 -1.06066,2.43074 -0.353553,0.83435 -0.707107,1.69232 -1.06066,2.57196 -0.353553,0.879639 -0.707107,1.781083 -1.06066,2.702301 -0.353553,0.921219 -0.707107,1.862331 -1.06066,2.821238 -0.353553,0.958906 -0.707107,1.935713 -1.06066,2.928257 -0.353553,0.992545 -0.707107,2.000921 -1.06066,3.022911 -0.353553,1.021991 -0.707107,2.057677 -1.06066,3.104798 -0.353553,1.04712 -0.707107,2.105743 -1.06066,3.173571 -0.353553,1.067828 -0.707107,2.144916 -1.06066,3.228942 -0.353553,1.084026 -0.707107,2.175031 -1.06066,3.270677 -0.353553,1.095646 -0.707107,2.19596 -1.06066,3.298598 -0.353553,1.102638 -0.707107,2.207614 -1.06066,3.312588 l 0,0"
           style="color:#000000;clip-rule:nonzero;display:inline;overflow:visible;visibility:visible;opacity:1;isolation:auto;mix-blend-mode:normal;color-interpolation:sRGB;color-interpolation-filters:linearRGB;solid-color:#000000;solid-opacity:1;fill:none;fill-opacity:1;fill-rule:evenodd;stroke:#000000;stroke-width:1.10247147;stroke-linecap:butt;stroke-linejoin:miter;stroke-miterlimit:4;stroke-dasharray:6.6148285, 6.6148285;stroke-dashoffset:0;stroke-opacity:1;color-rendering:auto;image-rendering:auto;shape-rendering:auto;text-rendering:auto;enable-background:accumulate"
           inkscape:connector-curvature="0"
           sodipodi:nodetypes="cscscsccccssssssssssssssssssscc" />
      </g>
    </g>
  </g>
</svg>
